<svg xmlns="http://www.w3.org/2000/svg" xmlns:xlink="http://www.w3.org/1999/xlink" aria-hidden="true" role="img" width="24" height="24" viewBox="0 0 408 416"><path fill="currentColor" d="M74.5 229q8.5 0 15 6.5t6.5 15t-6.5 15t-15 6.5t-15-6.5t-6.5-15t6.5-15t15-6.5m0 86q8.5 0 15 6t6.5 15t-6.5 15t-15 6t-15-6t-6.5-15t6.5-15t15-6m0-171q8.5 0 15 6.5t6.5 15t-6.5 15t-15 6.5t-15-6.5t-6.5-15t6.5-15t15-6.5m-64 11Q21 155 21 165.5T10.5 176T0 165.5T10.5 155m64-96q8.5 0 15 6T96 80t-6.5 15t-15 6t-15-6T53 80t6.5-15t15-6m320 117q-10.5 0-10.5-10.5t10.5-10.5t10.5 10.5t-10.5 10.5m-149-75q-8.5 0-15-6T224 80t6.5-15t15-6t15 6t6.5 15t-6.5 15t-15 6m0-74Q235 27 235 16t10.5-11T256 16t-10.5 11m-235 213Q21 240 21 250.5T10.5 261T0 250.5T10.5 240M160 389q11 0 11 11t-11 11t-11-11t11-11m0-362q-11 0-11-11t11-11t11 11t-11 11m0 74q-9 0-15-6t-6-15t6-15t15-6t15 6t6 15t-6 15t-15 6m0 118q13 0 22.5 9t9.5 22.5t-9.5 23T160 283t-22.5-9.5t-9.5-23t9.5-22.5t22.5-9m170.5 10q8.5 0 15 6.5t6.5 15t-6.5 15t-15 6.5t-15-6.5t-6.5-15t6.5-15t15-6.5m0 86q8.5 0 15 6t6.5 15t-6.5 15t-15 6t-15-6t-6.5-15t6.5-15t15-6m0-171q8.5 0 15 6.5t6.5 15t-6.5 15t-15 6.5t-15-6.5t-6.5-15t6.5-15t15-6.5m0-85q8.5 0 15 6t6.5 15t-6.5 15t-15 6t-15-6t-6.5-15t6.5-15t15-6m64 181q10.5 0 10.5 10.5T394.5 261T384 250.5t10.5-10.5m-149 75q8.5 0 15 6t6.5 15t-6.5 15t-15 6t-15-6t-6.5-15t6.5-15t15-6m0 74q10.5 0 10.5 11t-10.5 11t-10.5-11t10.5-11M160 133q13 0 22.5 9.5t9.5 23t-9.5 22.5t-22.5 9t-22.5-9t-9.5-22.5t9.5-23T160 133m0 182q9 0 15 6t6 15t-6 15t-15 6t-15-6t-6-15t6-15t15-6m85.5-96q13.5 0 22.5 9t9 22.5t-9 23t-22.5 9.5t-23-9.5t-9.5-23t9.5-22.5t23-9m0-86q13.5 0 22.5 9.5t9 23t-9 22.5t-22.5 9t-23-9t-9.5-22.5t9.5-23t23-9.5"></path></svg>
