<svg xmlns="http://www.w3.org/2000/svg" xmlns:xlink="http://www.w3.org/1999/xlink" aria-hidden="true" role="img" width="24" height="24" viewBox="0 0 100 100"><path fill="currentColor" d="M32.5 10.95c-6.89 0-12.55 5.66-12.55 12.55c0 4.02 1.935 7.613 4.91 9.916L14.815 54.172a12.4 12.4 0 0 0-2.316-.223C5.61 53.95-.05 59.61-.05 66.5S5.61 79.05 12.5 79.05c5.13 0 9.54-3.151 11.463-7.603l51.277 7.71c1.232 5.629 6.281 9.894 12.26 9.894c6.656 0 12.114-5.297 12.48-11.867a3.5 3.5 0 0 0 .07-.684a3.5 3.5 0 0 0-.071-.7c-.375-6.562-5.829-11.85-12.479-11.85c-.134 0-.264.015-.396.019L80.242 43.05c3.275-2.127 5.509-5.746 5.738-9.867a3.5 3.5 0 0 0 .07-.684a3.5 3.5 0 0 0-.071-.7c-.375-6.562-5.829-11.85-12.479-11.85c-5.062 0-9.452 3.06-11.43 7.415l-17.082-4.517l-.01-.047c-.374-6.563-5.828-11.852-12.478-11.852m0 7c3.107 0 5.55 2.443 5.55 5.55s-2.443 5.55-5.55 5.55s-5.55-2.443-5.55-5.55s2.443-5.55 5.55-5.55m41 9c3.107 0 5.55 2.443 5.55 5.55s-2.443 5.55-5.55 5.55s-5.55-2.443-5.55-5.55s2.443-5.55 5.55-5.55m-30.137 2.708l17.739 4.69C62.007 40.37 67.239 45.05 73.5 45.05l.033-.002l6.92 21.092a12.7 12.7 0 0 0-4.705 6.015l-50.916-7.654a12.6 12.6 0 0 0-3.787-7.13l10.342-21.378c.368.033.737.057 1.113.057c4.652 0 8.71-2.592 10.863-6.393M12.5 60.95c3.107 0 5.55 2.444 5.55 5.551s-2.443 5.55-5.55 5.55s-5.55-2.443-5.55-5.55s2.443-5.55 5.55-5.55m75 10c3.107 0 5.55 2.444 5.55 5.551s-2.443 5.55-5.55 5.55s-5.55-2.443-5.55-5.55s2.443-5.55 5.55-5.55" color="currentColor"></path></svg>
