<svg xmlns="http://www.w3.org/2000/svg" xmlns:xlink="http://www.w3.org/1999/xlink" aria-hidden="true" role="img" width="24" height="24" viewBox="0 0 2048 2048"><path fill="currentColor" d="M2048 1024q0 142-36 272t-103 245t-160 207t-208 160t-245 103t-272 37q-142 0-272-36t-245-103t-207-160t-160-208t-103-245t-37-272q0-141 36-272t103-245t160-207t208-160T752 37t272-37q141 0 272 36t245 103t207 160t160 208t103 245t37 272m-1024 896q123 0 237-32t214-90t182-141t140-181t91-214t32-238q0-123-32-237t-90-214t-141-182t-181-140t-214-91t-238-32q-124 0-238 32t-213 90t-182 141t-140 181t-91 214t-32 238q0 124 32 238t90 213t141 182t181 140t214 91t238 32m58-1472h70v1152h-128V694q-57 36-122 55t-134 19V640q103 0 184-51t130-141"></path></svg>
